<?xml version="1.0" encoding="UTF-8"?>
<svg id="Capa_1" data-name="Capa 1" xmlns="http://www.w3.org/2000/svg" viewBox="0 0 158.81 166.88">
  <defs>
    <style>
      .cls-1 {
        fill: #ea929d;
      }

      .cls-2 {
        fill: #fdfafa;
      }

      .cls-3 {
        fill: #e73749;
      }
    </style>
  </defs>
  <path class="cls-3" d="M1,0H157.81c.01,53.58-.02,107.16,.12,160.74,.01,4.25-1.4,5.27-5.43,5.26-48.73-.12-97.47-.12-146.2,0-4.03,0-5.44-1.01-5.43-5.26,.14-53.58,.11-107.16,.12-160.74ZM151.7,83.46c0-24.13-.09-48.26,.09-72.39,.03-3.97-1.09-4.98-5-4.97-44.91,.14-89.82,.13-134.73,0-3.84-.01-5.05,.89-5.04,4.93,.15,47.93,.14,95.85,0,143.78-.01,3.97,1.08,4.98,5,4.97,44.91-.14,89.82-.13,134.73,0,3.85,.01,5.08-.89,5.04-4.93-.2-23.79-.1-47.59-.1-71.39Z"/>
  <path class="cls-1" d="M1,0c-.01,53.58,.02,107.16-.12,160.74-.01,4.25,1.4,5.27,5.43,5.26,48.73-.12,97.47-.12,146.2,0,4.03,0,5.44-1.01,5.43-5.26-.14-53.58-.11-107.16-.12-160.74h1V166.88H0V0H1Z"/>
  <path class="cls-2" d="M151.7,83.46c0,23.8-.1,47.59,.1,71.39,.03,4.04-1.2,4.94-5.04,4.93-44.91-.13-89.82-.13-134.73,0-3.91,.01-5.01-1-5-4.97,.14-47.93,.14-95.85,0-143.78-.01-4.04,1.19-4.94,5.04-4.93,44.91,.13,89.82,.13,134.73,0,3.91-.01,5.03,1,5,4.97-.19,24.13-.09,48.26-.09,72.39ZM20.52,62.47c0,12.15,0,24.3,0,36.45,0,7.37,3.44,10.79,10.81,10.8,4.66,0,9.32,.02,13.97,0,5.93-.03,9.79-3.89,9.79-9.82,.01-24.3,0-48.6,.01-72.9,0-1.66-.33-3.5,.24-4.95,1.89-4.77,.34-6.06-4.52-5.85-7.65,.32-7.29,.06-7.23,7.44,.19,23.47,.04,46.93,.1,70.4,.02,5.55-4.02,3.51-6.76,3.84-2.97,.36-5.45-.08-4.95-4.07,.08-.66,0-1.33,.01-2,.59-24.42-1.2-48.88,.92-73.28,.07-.85,.13-1.97-.87-1.99-3.97-.11-8.19-.81-11.83,.29-2.26,.69,.43,4.02,.26,6.21-.1,1.32,.03,2.66,.03,3.99,0,11.82,0,23.63,0,35.45Zm79.41-20.01c0-5.49,.02-10.99,0-16.48-.03-5.25-4.38-9.65-9.61-9.69-6.16-.05-12.31-.05-18.47,0-2.47,.02-5.55-.6-7.25,.61-1.87,1.34,.87,4.16,.41,6.48-.22,1.12-.03,2.32-.03,3.49,0,10.99,.2,21.98-.05,32.96-.36,15.94,.51,31.87-.44,47.85-.26,4.47,6.26,.99,9.55,1.9,1.21,.33,4.17,1.29,3.43-2.28-1.82-8.74-.64-17.59-.8-26.38-.22-11.98-.05-11.98,12.05-11.99,7.63,0,11.22-3.52,11.22-11.01,0-5.16,0-10.32,0-15.48Zm6.86,20.45c0,11.99,0,23.97,0,35.96,0,7.19,3.67,10.84,10.9,10.85,4.33,0,8.65,0,12.98,0,7.39,0,10.97-3.71,11.05-11.24,.03-3.31-.49-6.67,.74-9.89,.71-1.85-.23-2.4-1.9-2.38-1.5,.02-2.99,0-4.49,0-6.54,0-6.5,0-6.11,6.36,.16,2.67,.57,5.74-3.72,5.25-3.31-.38-7.93,2.05-7.84-4.83,.27-19.97,.08-39.95,.11-59.93,0-5.29,.67-5.5,7.98-5.17,4.86,.22,4.04,3.86,3.3,6.05-2.04,6.02,1.15,6.21,5.45,5.79,.66-.06,1.34-.07,1.99,0,3.77,.39,6.52,.17,4.7-5.02-.73-2.09-.21-4.62-.22-6.95-.02-7.81-3.62-11.47-11.33-11.48-4.66,0-9.32-.04-13.98,0-5.32,.05-9.59,4.34-9.6,9.67-.03,12.32,0,24.64,0,36.95Zm-42.04,70.71c0-4.82-.09-9.65,.04-14.47,.06-2.06-.78-2.54-2.62-2.51-1.93,.03-2.05,1.06-1.96,2.59,.12,2.16,.29,4.36-.02,6.48-.26,1.81,1.62,4.99-1.87,5.14-3.66,.16-1.92-3.11-2.15-4.92-.27-2.13-.18-4.33,0-6.48,.14-1.68,.23-2.88-2.05-2.83-1.87,.04-2.08,.92-2.07,2.49,.06,9.48,.07,18.96-.01,28.45-.01,1.71,.44,2.35,2.2,2.32,1.72-.03,2.15-.48,2-2.31-.28-3.3-.1-6.65-.1-9.97,0-1.4,.73-2.16,2.14-2.19,1.54-.03,1.96,.96,1.97,2.26,.01,3.16,.12,6.33-.04,9.48-.09,1.8,.13,2.74,2.28,2.74,2.18,0,2.34-1.07,2.31-2.79-.09-4.49-.03-8.98-.03-13.47Zm33.61-1.78h.02c0,4.33,.16,8.66-.04,12.97-.24,4.99,2.83,5.07,6.49,5.09,3.64,.01,6.14-.51,6.03-5.06-.19-8.31-.06-16.64-.04-24.95,0-1.64,.48-3.38-2.27-3.26-2.98,.13-1.8,2.21-1.82,3.59-.07,7.15,.02,14.31-.07,21.46-.02,1.59,.92,4.17-2.12,4.05-2.97-.12-1.81-2.68-1.84-4.21-.13-7.15-.05-14.31-.06-21.46,0-1.58,.58-3.37-2.17-3.44-2.8-.08-2.18,1.59-2.14,3.25,.08,3.99,.03,7.99,.03,11.98Zm-15.58,1.11c0,4.31,.28,8.65-.09,12.93-.3,3.52,1.12,4.32,4.17,3.98,1.31-.15,2.65-.08,3.98-.02,2.91,.14,4.29-1.18,4.27-4.12-.04-8.29-.05-16.59,.01-24.88,.02-2.94-1.26-4.3-4.18-4.21-1.82,.05-3.65,.11-5.47-.01-2.19-.14-2.83,.75-2.75,2.9,.16,4.47,.05,8.96,.05,13.43Zm-58.1-6.45c-.01-5.27-.03-5.37,1.49-5.62,3.09-.51,1.85,2.19,2.68,3.39,.72,1.04,3.11,1.6,4.09-.48,1.53-3.25-.74-6.87-4.3-7.15-7.49-.59-8.31,.17-8.32,7.69,0,1.83,.08,3.66-.02,5.49-.21,3.67,1.12,5.76,5.13,5.47,1.5-.1,3.32-.11,3.24,2.05-.1,2.73,1.12,5.76-.87,8.1-.74,.87-2.91,.83-2.95-1.09-.05-2.4-1.17-2.82-3.1-2.56-2.92,.4-1.25,2.61-1.35,3.93-.2,2.52,1.13,3.88,3.82,4.14,7.59,.76,8.71-.18,8.71-7.81,0-2.16-.04-4.32,0-6.49,.05-2.8-1.24-4.75-4.05-4.46-4.33,.45-4.61-1.9-4.22-4.6Zm11.46,6.87c0,3.83,.07,7.66-.02,11.49-.14,6.37,4.54,4.75,8.11,4.97,4.4,.27,4.67-2.65,4.62-5.92-.02-1.33-.11-2.37-1.79-2.2-1.04,.1-2.61-.44-2.44,1.5,.17,2.04-.8,2.86-2.64,2.49-1.81-.36-1.44-2.01-1.45-3.26-.05-6.16-.05-12.32,0-18.48,.01-1.23-.42-2.86,1.54-3.14,1.88-.27,2.88,.42,2.48,2.5-.3,1.61,.94,1.49,1.88,1.48,.9,0,2.35,.43,2.33-1.04-.02-2.08,.9-4.57-1.11-6.12-2.61-2.02-5.79-1-8.69-.8-2.08,.14-2.86,1.98-2.84,4.05,.03,4.16,0,8.33,0,12.49Zm93.38-.23s-.02,0-.04,0c0,4.65,.21,9.32-.09,13.95-.15,2.31,.52,3.18,2.57,2.7,3.24-.76,7.26,2.18,9.7-1.92,.48-.81,.53-2.45-1.49-2.18-.98,.13-1.99,.04-2.98,.11-2.01,.13-4.04-.1-3.36-2.74,.66-2.56-2.46-6.57,2.3-7.49,1.78-.34,1.74-1.04,1.71-2.15-.03-1.04,.47-2.7-1.41-2.49-2.95,.33-2.53-1.57-2.72-3.42-.47-4.49-.1-8.02,5.93-6.78,.92,.19,2.15,.19,2.09-1.29-.03-.77-.22-2.07-.64-2.21-3.53-1.17-7.31-1.05-10.76-.25-2.18,.5-.6,3.42-.73,5.21-.26,3.64-.08,7.31-.08,10.96Zm-61.79,.01h-.02c0,4.64,0,9.29,0,13.93,0,1.23-.64,2.78,1.61,2.74,2.98-.05,5.97-.04,8.95-.03,1.75,0,1.58-1.29,1.69-2.42,.16-1.73-.8-1.83-2.16-1.64-.98,.14-1.99-.02-2.98,.07-2.07,.19-3.43-.64-2.88-2.77,.65-2.56-2.16-6.26,1.86-7.53,1.5-.48,2.25-.49,2.21-2.15-.04-1.42,.02-2.76-2.02-2.48-1.96,.27-1.99-1.01-2.14-2.45-.64-6.3-.23-6.9,5.96-7.67,.96-.12,2.14,.13,2.1-1.34-.02-.77-.18-2.1-.57-2.22-3.53-1.11-7.27-.96-10.75-.25-2.1,.43-.7,3.13-.79,4.76-.22,3.8-.07,7.63-.07,11.44Zm46.55-.26h.02c0,2.99,0,5.99,0,8.98q0,8.22,8.47,7.96c1.79-.05,3.93,.42,3.92-2.42-.01-3.2-2.52-1.58-3.65-1.48-3.58,.33-4.51-1.04-4.4-4.48,.25-7.31,.05-14.63,.09-21.94,0-1.63,0-2.9-2.24-2.89-2.15,0-2.32,1.05-2.27,2.82,.13,4.49,.04,8.98,.04,13.47Z"/>
  <path class="cls-3" d="M20.52,62.47c0-11.82,0-23.63,0-35.45,0-1.33-.13-2.67-.03-3.99,.16-2.19-2.52-5.53-.26-6.21,3.64-1.11,7.86-.41,11.83-.29,1,.03,.94,1.14,.87,1.99-2.12,24.4-.33,48.86-.92,73.28-.02,.67,.07,1.34-.01,2-.5,3.99,1.98,4.43,4.95,4.07,2.74-.33,6.78,1.7,6.76-3.84-.07-23.47,.08-46.94-.1-70.4-.06-7.37-.41-7.12,7.23-7.44,4.86-.2,6.41,1.08,4.52,5.85-.58,1.45-.24,3.29-.24,4.95-.01,24.3,0,48.6-.01,72.9,0,5.93-3.86,9.79-9.79,9.82-4.66,.02-9.32,0-13.97,0-7.37,0-10.8-3.43-10.81-10.8,0-12.15,0-24.3,0-36.45Z"/>
  <path class="cls-3" d="M99.93,42.46c0,5.16,0,10.32,0,15.48,0,7.48-3.6,11-11.22,11.01-12.1,0-12.27,.01-12.05,11.99,.16,8.79-1.02,17.64,.8,26.38,.74,3.57-2.22,2.61-3.43,2.28-3.29-.91-9.81,2.57-9.55-1.9,.94-15.97,.08-31.91,.44-47.85,.25-10.98,.05-21.97,.05-32.96,0-1.17-.19-2.37,.03-3.49,.45-2.32-2.28-5.15-.41-6.48,1.7-1.22,4.78-.59,7.25-.61,6.16-.06,12.31-.05,18.47,0,5.23,.04,9.58,4.44,9.61,9.69,.03,5.49,0,10.99,0,16.48Zm-23.31-.08c0,3.83-.04,7.66,.01,11.48,.07,4.86,3.82,3.05,6.26,3.24,2.36,.18,5.24,.79,5.18-3.3-.1-7.32-.11-14.65,0-21.97,.07-4.35-2.97-3.64-5.52-3.59-2.62,.06-6.09-1.08-5.97,3.66,.09,3.49,.02,6.99,.03,10.48Z"/>
  <path class="cls-3" d="M106.79,62.91c0-12.32-.02-24.64,0-36.95,.01-5.33,4.28-9.62,9.6-9.67,4.66-.05,9.32-.01,13.98,0,7.71,0,11.31,3.67,11.33,11.48,0,2.33-.52,4.86,.22,6.95,1.82,5.19-.93,5.41-4.7,5.02-.66-.07-1.34-.07-1.99,0-4.3,.42-7.5,.23-5.45-5.79,.74-2.19,1.56-5.83-3.3-6.05-7.31-.33-7.97-.13-7.98,5.17-.03,19.98,.17,39.95-.11,59.93-.09,6.87,4.53,4.45,7.84,4.83,4.3,.49,3.89-2.58,3.72-5.25-.39-6.36-.43-6.36,6.11-6.36,1.5,0,3,.02,4.49,0,1.67-.02,2.61,.53,1.9,2.38-1.23,3.23-.7,6.59-.74,9.89-.08,7.53-3.66,11.23-11.05,11.24-4.33,0-8.65,0-12.98,0-7.23,0-10.9-3.66-10.9-10.85,0-11.99,0-23.97,0-35.96Z"/>
  <path class="cls-3" d="M64.75,133.63c0,4.49-.06,8.98,.03,13.47,.03,1.73-.13,2.79-2.31,2.79-2.15,0-2.37-.94-2.28-2.74,.15-3.15,.05-6.32,.04-9.48,0-1.31-.43-2.3-1.97-2.26-1.41,.03-2.13,.79-2.14,2.19,0,3.33-.19,6.67,.1,9.97,.16,1.83-.28,2.28-2,2.31-1.76,.04-2.22-.61-2.2-2.32,.08-9.48,.07-18.96,.01-28.45,0-1.57,.2-2.45,2.07-2.49,2.28-.05,2.19,1.15,2.05,2.83-.18,2.15-.27,4.35,0,6.48,.23,1.8-1.51,5.08,2.15,4.92,3.49-.15,1.6-3.33,1.87-5.14,.31-2.12,.14-4.32,.02-6.48-.09-1.52,.03-2.56,1.96-2.59,1.84-.03,2.68,.46,2.62,2.51-.13,4.82-.04,9.65-.04,14.47Z"/>
  <path class="cls-3" d="M98.35,131.85c0-3.99,.05-7.99-.03-11.98-.03-1.66-.66-3.33,2.14-3.25,2.74,.07,2.16,1.87,2.17,3.44,0,7.15-.07,14.31,.06,21.46,.03,1.53-1.13,4.09,1.84,4.21,3.03,.12,2.1-2.46,2.12-4.05,.09-7.15,0-14.31,.07-21.46,.01-1.38-1.17-3.46,1.82-3.59,2.75-.12,2.27,1.62,2.27,3.26-.02,8.32-.15,16.64,.04,24.95,.11,4.56-2.39,5.08-6.03,5.06-3.66-.02-6.73-.1-6.49-5.09,.21-4.32,.04-8.65,.04-12.97h-.02Z"/>
  <path class="cls-3" d="M82.77,132.96c0-4.48,.11-8.96-.05-13.43-.08-2.16,.56-3.05,2.75-2.9,1.82,.12,3.65,.07,5.47,.01,2.92-.08,4.2,1.27,4.18,4.21-.07,8.29-.05,16.59-.01,24.88,.01,2.94-1.36,4.26-4.27,4.12-1.32-.06-2.67-.13-3.98,.02-3.05,.35-4.48-.46-4.17-3.98,.37-4.28,.09-8.62,.09-12.93Zm4.12,.33c0,3.16,0,6.32,0,9.48,0,1.57,0,3.08,2.26,2.99,2.03-.08,1.84-1.55,1.84-2.85,.02-6.49,.01-12.98,0-19.47,0-1.37,.02-2.65-1.98-2.68-1.92-.03-2.15,1.04-2.14,2.54,.03,3.33,0,6.66,0,9.98Z"/>
  <path class="cls-3" d="M24.67,126.51c-.4,2.7-.12,5.05,4.22,4.6,2.81-.29,4.1,1.67,4.05,4.46-.04,2.16,0,4.32,0,6.49,0,7.64-1.12,8.57-8.71,7.81-2.69-.27-4.02-1.62-3.82-4.14,.1-1.32-1.57-3.53,1.35-3.93,1.92-.26,3.05,.17,3.1,2.56,.04,1.92,2.21,1.96,2.95,1.09,1.99-2.35,.77-5.37,.87-8.1,.08-2.16-1.74-2.16-3.24-2.05-4.02,.28-5.34-1.8-5.13-5.47,.1-1.82,.02-3.66,.02-5.49,0-7.52,.83-8.28,8.32-7.69,3.56,.28,5.83,3.9,4.3,7.15-.98,2.08-3.37,1.52-4.09,.48-.83-1.2,.41-3.9-2.68-3.39-1.52,.25-1.5,.35-1.49,5.62Z"/>
  <path class="cls-3" d="M36.14,133.38c0-4.16,.02-8.33,0-12.49-.01-2.07,.76-3.92,2.84-4.05,2.9-.19,6.08-1.21,8.69,.8,2,1.55,1.08,4.04,1.11,6.12,.02,1.47-1.43,1.04-2.33,1.04-.94,0-2.18,.13-1.88-1.48,.39-2.08-.61-2.77-2.48-2.5-1.97,.28-1.53,1.91-1.54,3.14-.05,6.16-.05,12.32,0,18.48,0,1.25-.36,2.9,1.45,3.26,1.84,.37,2.81-.46,2.64-2.49-.16-1.95,1.4-1.4,2.44-1.5,1.68-.17,1.77,.87,1.79,2.2,.05,3.27-.22,6.19-4.62,5.92-3.57-.22-8.24,1.4-8.11-4.97,.08-3.83,.02-7.66,.02-11.49Z"/>
  <path class="cls-3" d="M129.52,133.16c0-3.66-.18-7.32,.08-10.96,.13-1.79-1.46-4.7,.73-5.21,3.45-.79,7.23-.92,10.76,.25,.42,.14,.62,1.44,.64,2.21,.05,1.48-1.17,1.48-2.09,1.29-6.04-1.24-6.4,2.29-5.93,6.78,.19,1.85-.23,3.75,2.72,3.42,1.88-.21,1.39,1.45,1.41,2.49,.03,1.11,.07,1.81-1.71,2.15-4.76,.92-1.65,4.94-2.3,7.49-.68,2.64,1.36,2.87,3.36,2.74,.99-.06,2,.02,2.98-.11,2.02-.27,1.97,1.37,1.49,2.18-2.44,4.1-6.46,1.16-9.7,1.92-2.06,.48-2.72-.39-2.57-2.7,.3-4.63,.09-9.3,.09-13.95,.01,0,.02,0,.04,0Z"/>
  <path class="cls-3" d="M67.73,133.17c0-3.81-.15-7.64,.07-11.44,.09-1.63-1.31-4.33,.79-4.76,3.48-.71,7.22-.86,10.75,.25,.39,.12,.55,1.45,.57,2.22,.03,1.47-1.15,1.22-2.1,1.34-6.18,.77-6.6,1.37-5.96,7.67,.15,1.44,.17,2.72,2.14,2.45,2.05-.28,1.98,1.06,2.02,2.48,.04,1.66-.7,1.67-2.21,2.15-4.02,1.27-1.21,4.97-1.86,7.53-.54,2.13,.81,2.95,2.88,2.77,.99-.09,2,.07,2.98-.07,1.36-.2,2.32-.09,2.16,1.64-.1,1.14,.06,2.43-1.69,2.42-2.98,0-5.97-.02-8.95,.03-2.25,.04-1.61-1.51-1.61-2.74,0-4.64,0-9.29,0-13.93h.02Z"/>
  <path class="cls-3" d="M114.28,132.91c0-4.49,.08-8.98-.04-13.47-.05-1.77,.11-2.81,2.27-2.82,2.24,0,2.25,1.27,2.24,2.89-.04,7.32,.16,14.64-.09,21.94-.12,3.45,.82,4.81,4.4,4.48,1.12-.1,3.64-1.72,3.65,1.48,0,2.85-2.13,2.37-3.92,2.42q-8.47,.26-8.47-7.96c0-2.99,0-5.99,0-8.98h-.02Z"/>
  <path class="cls-2" d="M76.62,42.38c0-3.49,.07-6.99-.02-10.48-.12-4.74,3.35-3.6,5.97-3.66,2.55-.06,5.59-.76,5.52,3.59-.12,7.32-.11,14.64,0,21.97,.06,4.1-2.83,3.48-5.18,3.3-2.44-.18-6.19,1.62-6.26-3.24-.05-3.83-.01-7.65-.01-11.48Z"/>
  <path class="cls-2" d="M86.89,133.3c0-3.33,.02-6.66,0-9.98-.01-1.5,.21-2.57,2.14-2.54,2,.03,1.98,1.31,1.98,2.68,0,6.49,.02,12.98,0,19.47,0,1.29,.18,2.76-1.84,2.85-2.26,.09-2.26-1.43-2.26-2.99,0-3.16,0-6.32,0-9.48Z"/>
</svg>