<?xml version="1.0" encoding="UTF-8"?>
<svg id="Capa_1" data-name="Capa 1" xmlns="http://www.w3.org/2000/svg" viewBox="0 0 318.66 81.3">
  <defs>
    <style>
      .cls-1 {
        fill: #f9f4f5;
      }

      .cls-2 {
        fill: #e73548;
      }

      .cls-3 {
        fill: #f6ecee;
      }
    </style>
  </defs>
  <path class="cls-2" d="M159.35,.13c51.13,0,102.27,.08,153.4-.13,4.98-.02,5.96,1.42,5.91,6.09-.25,23.29-.21,46.58-.02,69.87,.03,4.06-.98,5.35-5.23,5.34-102.77-.12-205.54-.11-308.3-.02-3.79,0-5.14-.83-5.11-4.91C.2,52.58,.19,28.79,0,5-.02,1.11,.99,.02,4.95,.04c51.47,.14,102.93,.09,154.4,.09Zm70.08,40.99c0-6.98,.03-13.96-.01-20.94-.02-3.77-2-5.9-5.78-6.01-4.16-.12-8.32-.03-12.48-.03-1.66,0-2.5,.18-2.44,2.51,.32,12.78,.18,25.57,.48,38.35,.1,4.28-2.25,10.26,.73,12.4,2.97,2.14,8.64,.58,13.13,.59,4.29,.01,6.4-2.14,6.38-6.44-.03-6.81,0-13.62-.01-20.44Zm-71.08-.05s.01,0,.02,0c0,8.14,.16,16.28-.07,24.41-.11,3.75,2.41,2.35,4.03,2.47,1.63,.12,3.62,.77,3.35-2.56-.46-5.61-.15-11.28-.33-16.92-.08-2.68,.72-3.97,3.65-3.91,2.86,.06,3.19,1.62,3.15,3.89-.11,5.64,.16,11.31-.27,16.93-.25,3.28,1.67,2.71,3.34,2.57,1.65-.13,4.1,1.21,4.07-2.47-.14-16.27-.13-32.55,0-48.82,.03-3.66-2.45-2.33-4.11-2.46-1.71-.14-3.58-.63-3.33,2.62,.44,5.62,.17,11.28,.28,16.93,.04,2.25-.25,3.85-3.13,3.91-2.91,.06-3.75-1.2-3.67-3.9,.17-5.64-.12-11.31,.32-16.92,.26-3.24-1.61-2.77-3.32-2.62-1.64,.14-4.16-1.24-4.06,2.47,.21,8.13,.07,16.27,.07,24.41Zm-122.88-1.54c.05,0,.11,0,.16,0,0-7.47-.33-14.96,.15-22.41,.23-3.51-1.55-2.94-3.49-2.94-2.1,0-3.91-.58-3.78,3.19,.46,13.27,.19,26.56,.38,39.85,.06,3.99-2.12,4.49-5.1,3.83-2.55-.56-1.79-2.87-1.8-4.55-.01-13.12-.11-26.24,.2-39.36,.08-3.38-1.68-3.1-3.63-2.9-1.42,.14-3.71-1.28-3.65,2.18,.25,12.78,.27,25.57,.31,38.35q.04,13.51,13.5,13.22c4.96-.11,6.7-1.87,6.73-7.02,.04-7.14,.01-14.28,.01-21.43Zm219.72,.02s.08,0,.12,0c0-7.48-.32-14.97,.14-22.42,.22-3.46-1.47-2.95-3.45-2.96-2.22-.02-3.91-.34-3.8,3.27,.38,13.12,.18,26.25,.26,39.38,.02,2.61-.22,4.54-3.66,4.45-3.15-.08-3.38-1.86-3.35-4.26,.14-13.45,.06-26.91,.43-40.35,.1-3.48-2-2.44-3.48-2.41-1.6,.03-3.9-1.27-3.78,2.59,.4,12.62,.51,25.25,.26,37.87-.3,14.89,1.38,13.27,14.01,13.26,4.29,0,6.34-2.18,6.31-6.48-.06-7.31-.02-14.62-.02-21.94ZM113.89,29.66c0-1.83,.05-3.65-.01-5.48-.07-2.35,1.06-3.23,3.35-3.2,2.19,.03,3.77,.68,3.28,3.13-.86,4.24,1.98,3.46,4.43,3.67,3.88,.33,2.74-2.08,2.51-4.13-.13-1.15-.04-2.32-.05-3.48-.03-3.83-2.1-6.25-5.78-5.87-4.98,.52-11.36-3.05-14.4,4.18-.18,.43-.09,.99-.09,1.48,0,6.31-.05,12.62,.02,18.93,.04,3.31,1.92,5.19,5.13,5.64,8.35,1.15,8.36,1.12,8.35,9.66,0,.83,.01,1.66,0,2.49-.05,2.13,.41,4.45-2.99,4.56-3.27,.1-4.1-1.37-3.5-4.3,.56-2.7-1.43-2.61-3.07-2.42-1.54,.18-3.84-1.17-4.27,1.84-1.24,8.69,1.24,11.62,9.95,11.62,1.33,0,2.66-.03,3.99,0,4.5,.1,6.77-1.99,6.69-6.58-.07-4.65-.01-9.3-.02-13.95,0-9.05-.3-9.47-9.49-9.74-2.98-.09-4.33-1.03-4.05-4.06,.12-1.32,.02-2.66,.03-3.98Zm18.68,11.39c0,6.81,.06,13.62-.02,20.43-.04,3.77,1.72,5.98,5.38,6.48,8.61,1.18,14.22-.3,15.02-4.12,.54-2.57,.82-5.36,.38-7.91-.49-2.88-3.26-1.21-5-1.51-1.73-.3-2.96,.21-2.35,2.48,.65,2.41,.43,4.18-2.88,4.27-3.42,.09-3.71-1.79-3.7-4.42,.06-10.3,.03-20.6,.02-30.9,0-2.54-.34-5.09,3.62-4.99,3.77,.09,3.31,2.23,2.9,4.72-.51,3.05,1.96,2.13,3.29,2.05,1.5-.09,3.83,1.3,4.19-1.86,1.04-9.06-1.23-11.64-10.47-11.64-1.33,0-2.66-.02-3.99,0-4.22,.09-6.43,2.14-6.4,6.47,.04,6.81,0,13.62,0,20.43ZM61.5,29.45c0-3.16,.01-6.32,0-9.48-.02-3.63-2.01-5.59-5.5-5.75-4.16-.19-8.33,.02-12.49-.08-2.31-.06-2.46,.81-2.43,2.98,.18,15.97,.29,31.94-.03,47.9-.07,3.42,1.47,3.04,3.46,2.93,1.75-.1,4.11,.94,3.8-2.71-.41-4.79,.17-9.67-.32-14.45-.53-5.12,1.21-6.71,6.32-6.35,5.55,.39,7.13-1.53,7.2-7.01,.03-2.66,0-5.32,0-7.99Zm4.05,11.09c0,6.98,.03,13.95,0,20.93-.02,4.29,2.08,6.44,6.33,6.53,1.5,.03,2.99,0,4.49,0,8.79,0,11.1-2.72,9.95-11.58-.44-3.37-3-1.72-4.64-1.99-1.41-.24-3.23-.38-2.68,2.17,.54,2.52,.61,4.59-3.08,4.57-3.58-.02-3.47-2.2-3.46-4.65,.02-10.3,.01-20.6,0-30.89,0-2.36-.32-4.71,3.33-4.78,3.56-.07,3.86,1.82,3.23,4.45-.55,2.34,.85,2.68,2.48,2.35,1.67-.34,4.24,1.44,4.82-1.83,1.51-8.49-1.18-11.69-9.85-11.69-1.33,0-2.66-.02-3.99,0-4.94,.12-6.87,2.01-6.91,6.96-.05,6.48-.01,12.96-.01,19.43Zm219.6,.38s.02,0,.03,0c0,7.98,.03,15.95-.02,23.93,0,1.49-.6,3.14,1.83,3.13,5.33,0,10.66,.19,15.97-.06,3.28-.16,2.05-3.25,2.54-5.11,.56-2.13-.92-1.84-2.36-1.85q-11.13-.09-11.03-11.26c0-.17,.01-.33,0-.5-.31-3.19,.42-5.29,4.34-4.43,2.62,.57,2.69-1.35,2.49-3.05-.19-1.58,.98-4.72-1.65-4.31-7.13,1.09-5.14-3.86-5.11-7.16,.09-10.31-2.21-9.26,9.59-9.36,1.36-.01,4.08,1.84,3.73-1.71-.22-2.24,.41-5.27-3.69-5.08-4.65,.22-9.32,.1-13.98,.03-2.08-.03-2.82,.56-2.76,2.87,.19,7.97,.07,15.95,.07,23.93Zm-100.5,1.06s-.05,0-.07,0c0,7.81,.03,15.62-.03,23.44-.01,1.21-.41,2.48,1.38,2.49,5.49,.05,11,.24,16.48-.06,3.06-.17,2.25-3.23,2.61-5.15,.41-2.18-1.3-1.67-2.6-1.67q-11.08-.06-11-11.31c0-.17,.01-.33,0-.5-.27-3.09,.24-5.43,4.26-4.52,2.11,.48,2.77-.75,2.55-2.51-.2-1.65,.83-4.9-1.27-4.61-7.07,.96-5.58-3.71-5.51-7.42,.21-10.37-2.25-9.19,9.65-9.31,1.41-.01,4.1,1.74,3.89-1.66-.14-2.27,.12-5.23-3.83-5.06-4.66,.19-9.33,.08-13.99,.03-2.05-.02-2.7,.48-2.62,2.88,.28,8.3,.11,16.62,.11,24.94Zm76.13-.28c-.05,0-.1,0-.15,0,0,7.97,.14,15.95-.09,23.92-.07,2.39,1.07,2.38,2.65,2.39,4.66,.01,9.33-.18,13.98,.06,4.27,.22,3.96-2.85,4.03-5.34,.1-3.53-2.6-1.18-3.99-1.51-1.1-.26-2.34-.18-3.48-.02-4.43,.63-6.1-.84-5.96-5.65,.38-12.79,.01-25.61,.32-38.41,.09-3.84-2.16-2.9-4.14-3-2.12-.11-3.52-.2-3.33,3.12,.48,8.12,.16,16.28,.16,24.43Z"/>
  <path class="cls-3" d="M229.43,41.12c0,6.81-.02,13.62,0,20.44,.02,4.31-2.09,6.46-6.38,6.44-4.49-.02-10.16,1.55-13.13-.59-2.97-2.14-.62-8.12-.73-12.4-.3-12.78-.16-25.57-.48-38.35-.06-2.33,.78-2.51,2.44-2.51,4.16,0,8.32-.1,12.48,.03,3.78,.11,5.76,2.24,5.78,6.01,.04,6.98,.01,13.96,.01,20.94Zm-6.91,.43c0-5.64-.04-11.28,.02-16.92,.03-2.32-.49-3.77-3.28-3.76-2.72,0-3.37,1.31-3.35,3.7,.06,10.95,.05,21.89,0,32.84-.01,2.34,.52,3.74,3.29,3.75,2.74,.01,3.38-1.32,3.35-3.69-.07-5.31-.02-10.61-.02-15.92Z"/>
  <path class="cls-3" d="M158.35,41.07c0-8.14,.15-16.28-.07-24.41-.1-3.71,2.42-2.33,4.06-2.47,1.71-.14,3.58-.62,3.32,2.62-.44,5.61-.15,11.28-.32,16.92-.08,2.7,.76,3.96,3.67,3.9,2.88-.06,3.17-1.67,3.13-3.91-.11-5.64,.16-11.31-.28-16.93-.25-3.25,1.62-2.76,3.33-2.62,1.65,.14,4.14-1.2,4.11,2.46-.13,16.27-.15,32.55,0,48.82,.03,3.69-2.42,2.35-4.07,2.47-1.68,.13-3.59,.7-3.34-2.57,.43-5.62,.16-11.28,.27-16.93,.04-2.27-.28-3.82-3.15-3.89-2.94-.07-3.74,1.22-3.65,3.91,.17,5.64-.13,11.31,.33,16.92,.27,3.33-1.72,2.67-3.35,2.56-1.62-.12-4.14,1.28-4.03-2.47,.24-8.13,.07-16.27,.07-24.41,0,0-.01,0-.02,0Z"/>
  <path class="cls-1" d="M35.47,39.53c0,7.14,.03,14.28-.01,21.43-.03,5.15-1.77,6.92-6.73,7.02q-13.49,.29-13.5-13.22c-.04-12.78-.06-25.57-.31-38.35-.07-3.46,2.23-2.04,3.65-2.18,1.95-.19,3.72-.48,3.63,2.9-.31,13.11-.22,26.24-.2,39.36,0,1.68-.75,3.99,1.8,4.55,2.98,.66,5.16,.16,5.1-3.83-.19-13.28,.08-26.58-.38-39.85-.13-3.76,1.68-3.18,3.78-3.19,1.93,0,3.71-.57,3.49,2.94-.48,7.44-.15,14.93-.15,22.41-.05,0-.11,0-.16,0Z"/>
  <path class="cls-1" d="M255.18,39.55c0,7.31-.04,14.62,.02,21.94,.03,4.31-2.02,6.48-6.31,6.48-12.63,.01-14.31,1.63-14.01-13.26,.25-12.62,.14-25.26-.26-37.87-.12-3.85,2.18-2.56,3.78-2.59,1.48-.03,3.57-1.08,3.48,2.41-.37,13.44-.29,26.9-.43,40.35-.02,2.4,.21,4.18,3.35,4.26,3.43,.09,3.68-1.84,3.66-4.45-.08-13.13,.12-26.26-.26-39.38-.11-3.61,1.58-3.29,3.8-3.27,1.98,.01,3.67-.5,3.45,2.96-.47,7.45-.14,14.94-.14,22.42-.04,0-.08,0-.12,0Z"/>
  <path class="cls-1" d="M113.89,29.66c0,1.33,.1,2.67-.03,3.98-.28,3.03,1.07,3.98,4.05,4.06,9.19,.27,9.49,.69,9.49,9.74,0,4.65-.06,9.3,.02,13.95,.07,4.59-2.19,6.68-6.69,6.58-1.33-.03-2.66,0-3.99,0-8.7,0-11.18-2.93-9.95-11.62,.43-3.01,2.73-1.66,4.27-1.84,1.64-.19,3.63-.28,3.07,2.42-.61,2.93,.22,4.41,3.5,4.3,3.4-.11,2.94-2.43,2.99-4.56,.02-.83,0-1.66,0-2.49,0-8.54,0-8.51-8.35-9.66-3.21-.44-5.09-2.33-5.13-5.64-.07-6.31-.02-12.62-.02-18.93,0-.5-.09-1.05,.09-1.48,3.05-7.23,9.42-3.66,14.4-4.18,3.68-.38,5.75,2.03,5.78,5.87,0,1.16-.07,2.33,.05,3.48,.22,2.05,1.37,4.45-2.51,4.13-2.45-.21-5.29,.57-4.43-3.67,.5-2.45-1.09-3.1-3.28-3.13-2.29-.03-3.42,.85-3.35,3.2,.06,1.83,.01,3.65,0,5.48Z"/>
  <path class="cls-3" d="M132.57,41.05c0-6.81,.03-13.62,0-20.43-.02-4.33,2.19-6.38,6.4-6.47,1.33-.03,2.66,0,3.99,0,9.24,0,11.51,2.57,10.47,11.64-.36,3.15-2.69,1.77-4.19,1.86-1.34,.08-3.8,1-3.29-2.05,.42-2.49,.87-4.63-2.9-4.72-3.95-.1-3.62,2.45-3.62,4.99,0,10.3,.04,20.6-.02,30.9-.02,2.64,.28,4.51,3.7,4.42,3.31-.09,3.53-1.86,2.88-4.27-.61-2.26,.62-2.78,2.35-2.48,1.74,.3,4.51-1.37,5,1.51,.43,2.55,.15,5.34-.38,7.91-.8,3.81-6.41,5.29-15.02,4.12-3.66-.5-5.42-2.71-5.38-6.48,.08-6.81,.02-13.62,.02-20.43Z"/>
  <path class="cls-1" d="M61.5,29.45c0,2.66,.03,5.32,0,7.99-.07,5.48-1.65,7.4-7.2,7.01-5.1-.36-6.84,1.22-6.32,6.35,.49,4.78-.08,9.66,.32,14.45,.31,3.65-2.05,2.61-3.8,2.71-1.99,.12-3.53,.49-3.46-2.93,.31-15.96,.21-31.93,.03-47.9-.02-2.17,.13-3.04,2.43-2.98,4.16,.1,8.33-.11,12.49,.08,3.49,.16,5.48,2.11,5.5,5.75,.02,3.16,0,6.32,0,9.48Zm-6.67,.13c0-1.82-.05-3.64,.01-5.45,.07-2.37-1.12-3.15-3.36-3.15-2.18,0-3.48,.56-3.42,3.04,.09,3.63,.06,7.27,0,10.91-.03,2.15,1.01,2.93,3.05,2.9,1.97-.03,3.74-.16,3.72-2.78-.01-1.82,0-3.64,0-5.45Z"/>
  <path class="cls-3" d="M65.55,40.54c0-6.48-.04-12.96,.01-19.43,.04-4.95,1.97-6.84,6.91-6.96,1.33-.03,2.66,0,3.99,0,8.67,0,11.36,3.2,9.85,11.69-.58,3.27-3.15,1.49-4.82,1.83-1.63,.33-3.03-.01-2.48-2.35,.62-2.63,.33-4.52-3.23-4.45-3.64,.07-3.33,2.43-3.33,4.78,0,10.3,.01,20.6,0,30.89,0,2.45-.12,4.63,3.46,4.65,3.7,.02,3.62-2.04,3.08-4.57-.54-2.55,1.27-2.41,2.68-2.17,1.65,.28,4.21-1.38,4.64,1.99,1.14,8.85-1.16,11.58-9.95,11.58-1.5,0-2.99,.03-4.49,0-4.25-.09-6.36-2.25-6.33-6.53,.04-6.98,0-13.95,.01-20.93Z"/>
  <path class="cls-3" d="M285.15,40.92c0-7.98,.12-15.96-.07-23.93-.06-2.31,.68-2.9,2.76-2.87,4.66,.07,9.33,.19,13.98-.03,4.1-.2,3.48,2.84,3.69,5.08,.35,3.55-2.37,1.7-3.73,1.71-11.8,.1-9.5-.95-9.59,9.36-.03,3.3-2.01,8.26,5.11,7.16,2.63-.4,1.46,2.73,1.65,4.31,.2,1.7,.13,3.62-2.49,3.05-3.92-.86-4.65,1.24-4.34,4.43,.02,.16,0,.33,0,.5q-.1,11.14,11.03,11.26c1.44,.01,2.92-.28,2.36,1.85-.49,1.86,.74,4.96-2.54,5.11-5.31,.25-10.65,.06-15.97,.06-2.43,0-1.84-1.65-1.83-3.13,.05-7.98,.02-15.95,.02-23.93-.01,0-.02,0-.03,0Z"/>
  <path class="cls-1" d="M184.64,41.98c0-8.31,.17-16.63-.11-24.94-.08-2.4,.56-2.9,2.62-2.88,4.66,.05,9.33,.16,13.99-.03,3.96-.17,3.69,2.79,3.83,5.06,.22,3.4-2.48,1.64-3.89,1.66-11.89,.12-9.44-1.07-9.65,9.31-.07,3.71-1.56,8.38,5.51,7.42,2.1-.29,1.07,2.96,1.27,4.61,.21,1.77-.45,2.99-2.55,2.51-4.01-.91-4.53,1.42-4.26,4.52,.01,.17,0,.33,0,.5q-.08,11.24,11,11.31c1.3,0,3.02-.51,2.6,1.67-.36,1.92,.45,4.98-2.61,5.15-5.48,.3-10.99,.11-16.48,.06-1.78-.02-1.39-1.28-1.38-2.49,.07-7.81,.03-15.62,.03-23.44,.02,0,.05,0,.07,0Z"/>
  <path class="cls-3" d="M260.78,41.7c0-8.14,.32-16.31-.16-24.43-.19-3.32,1.2-3.22,3.33-3.12,1.98,.1,4.23-.84,4.14,3-.31,12.8,.06,25.61-.32,38.41-.14,4.81,1.54,6.28,5.96,5.65,1.14-.16,2.38-.24,3.48,.02,1.39,.33,4.09-2.02,3.99,1.51-.07,2.48,.24,5.56-4.03,5.34-4.65-.24-9.32-.05-13.98-.06-1.57,0-2.71,0-2.65-2.39,.23-7.97,.09-15.94,.09-23.92,.05,0,.1,0,.15,0Z"/>
  <path class="cls-2" d="M222.52,41.54c0,5.31-.05,10.62,.02,15.92,.03,2.38-.6,3.71-3.35,3.69-2.77-.01-3.3-1.41-3.29-3.75,.05-10.95,.06-21.89,0-32.84-.01-2.39,.63-3.7,3.35-3.7,2.79,0,3.31,1.44,3.28,3.76-.06,5.64-.02,11.28-.02,16.92Z"/>
  <path class="cls-2" d="M54.83,29.58c0,1.82-.01,3.64,0,5.45,.02,2.62-1.75,2.75-3.72,2.78-2.04,.03-3.08-.75-3.05-2.9,.06-3.64,.08-7.27,0-10.91-.06-2.48,1.24-3.04,3.42-3.04,2.24,0,3.44,.79,3.36,3.15-.06,1.82-.01,3.64-.01,5.45Z"/>
</svg>